<?xml version="1.0" standalone="no"?>
<!DOCTYPE svg PUBLIC "-//W3C//DTD SVG 20010904//EN"
 "http://www.w3.org/TR/2001/REC-SVG-20010904/DTD/svg10.dtd">
<svg version="1.0" xmlns="http://www.w3.org/2000/svg"
 width="71.000000pt" height="71.000000pt" viewBox="0 0 71.000000 71.000000"
 preserveAspectRatio="xMidYMid meet">
<metadata>
Created by potrace 1.15, written by Peter Selinger 2001-2017
</metadata>
<g transform="translate(0.000000,71.000000) scale(0.100000,-0.100000)"
fill="#000000" stroke="none">
<path d="M267 704 c-4 -4 -7 -27 -7 -51 l0 -43 -118 0 c-78 0 -122 -4 -130
-12 -17 -17 -17 -529 0 -546 8 -8 51 -12 129 -12 109 0 117 -1 122 -20 5 -20
12 -20 224 -18 l218 3 3 67 c2 56 0 68 -13 68 -8 0 -15 7 -15 15 0 8 7 15 15
15 13 0 15 34 13 268 l-3 267 -216 3 c-118 1 -218 -1 -222 -4z m73 -54 c0 -20
5 -30 15 -30 10 0 15 10 15 30 l0 30 115 0 115 0 0 -245 c0 -211 2 -245 15
-245 13 0 15 34 15 245 l0 245 25 0 25 0 0 -235 c0 -222 -1 -236 -20 -255 -25
-25 -25 -45 0 -70 12 -12 20 -33 20 -55 0 -31 -3 -35 -25 -35 -23 0 -25 4 -25
45 0 33 -4 45 -15 45 -11 0 -15 -12 -15 -45 l0 -45 -117 0 c-110 1 -116 2 -90
16 l27 15 0 264 c0 300 4 285 -84 285 -46 0 -46 0 -46 35 0 31 3 35 25 35 21
0 25 -5 25 -30z m45 -325 l0 -240 -177 -3 -178 -2 0 245 0 245 178 -2 177 -3
0 -240z"/>
<path d="M490 601 c0 -20 -6 -32 -19 -36 -30 -9 -47 -33 -33 -47 9 -9 15 -9
24 0 7 7 16 12 20 12 12 0 10 -38 -2 -45 -5 -3 -10 -14 -10 -25 0 -10 -7 -20
-15 -24 -12 -4 -15 -28 -15 -126 0 -113 1 -120 20 -120 18 0 20 8 22 128 l3
127 29 0 c34 0 44 16 21 35 -22 18 -20 54 3 45 29 -11 36 -11 39 5 2 9 -10 23
-27 33 -20 12 -30 26 -30 43 0 15 -6 24 -15 24 -10 0 -15 -10 -15 -29z"/>
<path d="M155 420 c-68 -28 -96 -127 -53 -190 87 -128 284 -19 224 124 -25 61
-107 93 -171 66z"/>
</g>
</svg>
