<?xml version="1.0" standalone="no"?>
<!DOCTYPE svg PUBLIC "-//W3C//DTD SVG 20010904//EN"
 "http://www.w3.org/TR/2001/REC-SVG-20010904/DTD/svg10.dtd">
<svg version="1.0" xmlns="http://www.w3.org/2000/svg"
 width="75.000000pt" height="72.000000pt" viewBox="0 0 75.000000 72.000000"
 preserveAspectRatio="xMidYMid meet">
<metadata>
Created by potrace 1.15, written by Peter Selinger 2001-2017
</metadata>
<g transform="translate(0.000000,72.000000) scale(0.100000,-0.100000)"
fill="#000000" stroke="none">
<path d="M138 685 c-10 -22 -17 -25 -63 -25 -56 0 -75 -12 -75 -47 0 -33 29
-43 127 -43 105 0 130 6 138 31 4 11 16 19 28 19 43 0 67 13 73 36 11 45 -9
54 -117 54 -96 0 -100 -1 -111 -25z"/>
<path d="M594 696 c-19 -14 -19 -15 2 -38 29 -32 35 -54 24 -83 -10 -27 -30
-34 -30 -11 0 26 -26 34 -128 38 l-102 4 -147 -253 c-94 -160 -151 -249 -157
-243 -17 17 -36 11 -36 -10 0 -11 -4 -20 -10 -20 -5 0 -10 -7 -10 -15 0 -8 5
-15 10 -15 6 0 10 -11 10 -25 0 -18 5 -25 20 -25 15 0 20 7 20 25 0 14 4 25
10 25 5 0 40 52 77 115 37 63 68 113 70 111 6 -6 -79 -190 -93 -201 -10 -7
-14 -22 -12 -40 l3 -30 260 0 260 0 3 30 c2 18 -2 33 -12 40 -14 11 -99 195
-93 201 2 2 33 -48 70 -111 37 -63 72 -115 77 -115 6 0 10 -11 10 -25 0 -18 5
-25 20 -25 15 0 20 7 20 25 0 14 5 25 10 25 6 0 10 7 10 15 0 8 -4 15 -10 15
-5 0 -10 9 -10 20 0 21 -24 27 -36 9 -5 -9 -58 74 -196 311 l-26 45 112 -3
c61 -1 117 2 124 6 29 19 50 153 31 189 -26 48 -104 69 -145 39z m-139 -340
c41 -99 75 -180 75 -182 0 -2 -19 -4 -43 -4 -42 0 -44 1 -68 53 -17 37 -30 52
-44 52 -14 0 -27 -15 -44 -52 -24 -52 -25 -53 -69 -53 -31 0 -43 4 -39 12 27
72 151 358 153 355 2 -1 37 -83 79 -181z"/>
</g>
</svg>
