<?xml version="1.0" standalone="no"?>
<!DOCTYPE svg PUBLIC "-//W3C//DTD SVG 20010904//EN"
 "http://www.w3.org/TR/2001/REC-SVG-20010904/DTD/svg10.dtd">
<svg version="1.0" xmlns="http://www.w3.org/2000/svg"
 width="82.000000pt" height="60.000000pt" viewBox="0 0 82.000000 60.000000"
 preserveAspectRatio="xMidYMid meet">
<metadata>
Created by potrace 1.15, written by Peter Selinger 2001-2017
</metadata>
<g transform="translate(0.000000,60.000000) scale(0.100000,-0.100000)"
fill="#000000" stroke="none">
<path d="M133 588 c-78 -9 -83 -11 -83 -34 0 -19 -5 -24 -25 -24 l-25 0 0
-265 0 -265 410 0 410 0 0 265 0 265 -25 0 c-20 0 -25 5 -25 24 0 23 -4 24
-115 36 -64 7 -141 9 -173 6 -31 -4 -64 -6 -72 -6 -8 0 -55 2 -105 4 -50 2
-127 0 -172 -6z m240 -34 c15 -5 17 -24 17 -222 l0 -217 -103 0 c-56 0 -123
-3 -149 -7 l-48 -8 0 220 c0 121 1 220 3 221 1 0 47 7 102 14 92 12 132 11
178 -1z m252 1 c116 -11 105 15 105 -235 l0 -220 -47 8 c-27 4 -94 7 -150 7
l-103 0 0 217 0 218 28 6 c15 3 32 7 37 9 6 2 21 2 35 0 14 -2 57 -7 95 -10z
m-575 -280 c0 -169 3 -215 13 -215 7 0 65 6 128 14 85 11 126 12 155 4 49 -13
79 -13 128 0 29 8 70 7 155 -4 63 -8 121 -14 128 -14 10 0 13 46 13 215 0 137
4 215 10 215 6 0 10 -83 10 -230 l0 -230 -380 0 -380 0 0 230 c0 147 4 230 10
230 6 0 10 -78 10 -215z"/>
</g>
</svg>
