<?xml version="1.0" standalone="no"?>
<!DOCTYPE svg PUBLIC "-//W3C//DTD SVG 20010904//EN"
 "http://www.w3.org/TR/2001/REC-SVG-20010904/DTD/svg10.dtd">
<svg version="1.0" xmlns="http://www.w3.org/2000/svg"
 width="74.000000pt" height="69.000000pt" viewBox="0 0 74.000000 69.000000"
 preserveAspectRatio="xMidYMid meet">
<metadata>
Created by potrace 1.15, written by Peter Selinger 2001-2017
</metadata>
<g transform="translate(0.000000,69.000000) scale(0.100000,-0.100000)"
fill="#000000" stroke="none">
<path d="M142 678 c-6 -6 -12 -18 -12 -25 0 -8 -21 -13 -62 -15 -57 -3 -63 -5
-66 -26 -7 -44 12 -52 123 -52 116 0 135 4 135 31 0 14 9 18 48 21 47 3 47 3
47 38 l0 35 -100 3 c-70 2 -104 -1 -113 -10z"/>
<path d="M336 455 l-79 -135 -22 20 c-12 11 -27 20 -33 20 -7 0 -55 -64 -107
-142 -78 -117 -95 -150 -95 -180 l0 -38 370 0 370 0 0 39 c0 32 -18 71 -90
195 -49 86 -90 158 -90 161 0 3 11 5 24 5 37 0 56 10 56 31 0 15 7 19 38 19
50 0 64 11 60 46 l-3 29 -100 3 c-91 3 -102 1 -117 -18 -16 -20 -17 -20 -44
30 -15 28 -34 50 -43 50 -10 0 -46 -52 -95 -135z m69 -91 c28 18 28 18 46 -5
10 -13 19 -27 19 -31 0 -16 38 -7 51 12 13 19 20 9 102 -134 48 -84 87 -159
87 -165 0 -8 -95 -11 -340 -11 -221 0 -340 4 -340 10 0 6 39 69 87 140 67 101
89 128 99 119 8 -7 11 -22 7 -40 -11 -56 24 -31 73 52 l47 81 18 -23 c17 -22
17 -22 44 -5z"/>
<path d="M173 144 c-60 -53 -78 -84 -50 -84 7 0 39 23 70 51 l57 51 35 -26
c38 -29 59 -32 95 -11 23 12 29 10 87 -31 34 -24 69 -44 77 -44 33 0 13 27
-60 79 l-75 54 -39 -18 c-38 -17 -39 -17 -73 9 -18 14 -40 26 -48 26 -8 0 -42
-25 -76 -56z"/>
</g>
</svg>
