<?xml version="1.0" standalone="no"?>
<!DOCTYPE svg PUBLIC "-//W3C//DTD SVG 20010904//EN"
 "http://www.w3.org/TR/2001/REC-SVG-20010904/DTD/svg10.dtd">
<svg version="1.0" xmlns="http://www.w3.org/2000/svg"
 width="72.000000pt" height="77.000000pt" viewBox="0 0 72.000000 77.000000"
 preserveAspectRatio="xMidYMid meet">
<metadata>
Created by potrace 1.15, written by Peter Selinger 2001-2017
</metadata>
<g transform="translate(0.000000,77.000000) scale(0.100000,-0.100000)"
fill="#000000" stroke="none">
<path d="M439 747 c-40 -27 -51 -57 -20 -57 12 0 21 4 21 10 0 13 54 40 82 40
38 0 85 -35 97 -73 25 -76 -39 -146 -121 -133 -34 6 -39 4 -36 -11 4 -25 86
-30 128 -8 63 32 89 120 55 186 -36 68 -139 91 -206 46z"/>
<path d="M0 360 l0 -310 130 0 c109 0 130 2 130 15 0 12 -19 15 -115 15 l-115
0 0 280 0 280 195 0 195 0 0 -175 c0 -149 2 -175 15 -175 13 0 15 28 15 190
l0 190 -225 0 -225 0 0 -310z"/>
<path d="M60 545 l0 -65 75 0 75 0 0 65 0 65 -75 0 -75 0 0 -65z"/>
<path d="M240 350 l0 -60 75 0 76 0 -3 58 -3 57 -72 3 -73 3 0 -61z"/>
<path d="M250 190 c0 -87 11 -119 55 -160 24 -23 36 -25 128 -28 96 -3 104 -2
140 22 21 15 56 35 77 46 21 11 46 30 54 42 34 48 9 118 -41 118 -12 0 -23 8
-26 20 -5 19 -14 20 -196 20 l-191 0 0 -80z m350 -69 c0 -26 -34 -66 -69 -81
-19 -7 -60 -11 -107 -8 -71 3 -78 6 -105 36 -16 18 -29 41 -29 52 0 19 7 20
155 20 145 0 155 -1 155 -19z"/>
</g>
</svg>
