<?xml version="1.0" standalone="no"?>
<!DOCTYPE svg PUBLIC "-//W3C//DTD SVG 20010904//EN"
 "http://www.w3.org/TR/2001/REC-SVG-20010904/DTD/svg10.dtd">
<svg version="1.0" xmlns="http://www.w3.org/2000/svg"
 width="71.000000pt" height="71.000000pt" viewBox="0 0 71.000000 71.000000"
 preserveAspectRatio="xMidYMid meet">
<metadata>
Created by potrace 1.15, written by Peter Selinger 2001-2017
</metadata>
<g transform="translate(0.000000,71.000000) scale(0.100000,-0.100000)"
fill="#000000" stroke="none">
<path d="M63 690 c-3 -11 -13 -20 -23 -20 -24 0 -42 -24 -38 -52 3 -21 9 -23
63 -26 l59 -3 -62 -35 c-50 -28 -62 -40 -62 -60 0 -13 4 -24 9 -24 5 0 11 -9
14 -20 3 -11 10 -20 16 -20 6 0 11 9 11 20 0 13 7 20 20 20 18 0 20 -7 20 -74
l0 -75 -42 -3 -43 -3 -3 -157 c-2 -136 0 -158 13 -158 11 0 15 12 16 48 2 44
2 45 8 12 4 -22 12 -35 21 -35 10 0 16 12 19 35 3 31 5 32 10 11 9 -34 31 -39
31 -7 l0 26 235 0 235 0 0 -26 c0 -32 22 -27 31 7 5 21 7 20 10 -11 3 -23 9
-35 19 -35 9 0 17 13 21 35 6 33 6 32 8 -12 1 -36 5 -48 16 -48 13 0 15 22 13
158 l-3 157 -42 3 -43 3 0 75 c0 67 2 74 20 74 13 0 20 -7 20 -20 0 -11 5 -20
11 -20 6 0 13 9 16 20 3 11 9 20 14 20 5 0 9 11 9 24 0 21 -24 38 -166 120
-161 93 -206 110 -231 85 -8 -8 -13 -8 -17 0 -5 7 -49 11 -118 11 -101 0 -110
-2 -115 -20z m512 -137 l90 -53 -309 0 c-170 0 -307 2 -305 4 2 2 71 42 153
90 l150 86 65 -37 c36 -20 107 -60 156 -90z m-385 -98 c0 -20 19 -19 27 2 5
14 8 13 14 -5 5 -12 13 -22 19 -22 6 0 14 10 19 22 6 18 9 19 14 5 8 -21 27
-22 27 -2 0 20 20 19 36 -2 12 -17 13 -17 19 0 9 21 35 23 35 2 0 -20 19 -19
27 2 5 14 8 13 14 -5 5 -12 13 -22 19 -22 6 0 14 10 19 22 6 18 9 19 14 5 8
-21 27 -22 27 -2 0 8 5 15 10 15 6 0 10 -32 10 -75 0 -69 -2 -75 -20 -75 -12
0 -24 -9 -29 -22 -7 -18 -9 -15 -14 23 -8 63 -59 109 -122 109 -63 0 -114 -46
-122 -109 -5 -38 -7 -41 -14 -23 -5 13 -17 22 -29 22 -18 0 -20 6 -20 75 0 43
4 75 10 75 6 0 10 -7 10 -15z"/>
</g>
</svg>
